<svg width="1080" height="1080" viewBox="0 0 1080 1080" fill="none" xmlns="http://www.w3.org/2000/svg">
<rect width="1080" height="1080" fill="white"/>
<path fill-rule="evenodd" clip-rule="evenodd" d="M909.348 326.701C933.611 326.701 953.281 346.371 953.281 370.635C953.281 394.899 933.611 414.569 909.348 414.569C890.824 414.569 874.979 403.104 868.518 386.883H765.037L736.085 336.667L649.773 336.637L619.822 381.818H381.697L338.187 349.323H602.197L631.785 305.097H755.776L784.171 354.364L868.519 354.385C874.979 338.166 890.824 326.701 909.348 326.701ZM774.261 511.744C796.024 511.744 813.665 529.386 813.665 551.148C813.665 572.91 796.024 590.552 774.261 590.552C757.85 590.552 743.784 580.517 737.858 566.25V566.257H663.306L640.61 537.299H511.414L342.617 416.369L309.705 516.402L384.913 462.166L414.38 483.288L243.618 610.079L312.225 395.639L226.151 334.622L126 262.778H353.827L422.878 47L494.152 262.778H579.023L598.015 231.034H780.477C787.345 215.728 802.717 205.067 820.581 205.067C844.844 205.067 864.514 224.737 864.514 249C864.514 273.264 844.844 292.934 820.581 292.934C801.13 292.934 784.634 280.292 778.853 262.778H616.415L593.796 297.605H236.546L530.602 508.293L655.196 508.457L677.903 537.299H737.36V537.307C742.964 522.373 757.37 511.744 774.261 511.744ZM687.629 400.143C711.891 400.143 731.562 419.814 731.562 444.077C731.562 468.34 711.891 488.011 687.629 488.011C668.963 488.011 653.017 476.368 646.652 459.949H486.515L446.421 428.206H646.652C653.016 411.787 668.962 400.143 687.629 400.143ZM687.809 428.106C696.63 428.106 703.78 435.257 703.78 444.077C703.78 452.898 696.63 460.048 687.809 460.048C678.988 460.048 671.838 452.898 671.838 444.077C671.838 435.257 678.988 428.106 687.809 428.106ZM820.761 233.03C829.581 233.03 836.732 240.18 836.732 249.001C836.732 257.822 829.581 264.972 820.761 264.972C811.94 264.972 804.789 257.822 804.789 249.001C804.789 240.18 811.94 233.03 820.761 233.03ZM422.878 161.904L456.369 261.561L391.483 261.402L422.878 161.904ZM909.528 354.664C918.349 354.664 925.5 361.815 925.5 370.635C925.5 379.456 918.349 386.607 909.528 386.607C900.708 386.607 893.557 379.456 893.557 370.635C893.557 361.815 900.708 354.664 909.528 354.664ZM774.261 537.039C782.053 537.039 788.37 543.357 788.37 551.148C788.37 558.939 782.053 565.256 774.261 565.256C766.471 565.256 760.153 558.939 760.153 551.148C760.153 543.357 766.471 537.039 774.261 537.039Z" fill="url(#paint0_linear_1_39)"/>
<path d="M203.1 712.607C203.1 783.262 329.941 746.126 329.941 788.809C329.941 807.377 309.685 814.129 287.5 814.129C257.598 814.129 239.03 803.518 238.066 780.61H199C199.724 816.781 224.32 841.137 286.294 841.137C322.948 841.137 369.007 829.562 369.007 785.191C369.007 711.401 240.718 750.708 240.718 709.955C240.718 693.557 256.634 686.322 280.748 686.322C310.891 686.322 322.948 700.55 324.154 714.054H363.219C358.396 664.137 305.586 659.314 279.06 659.314C237.101 659.314 203.1 674.024 203.1 712.607Z" fill="url(#paint1_linear_1_39)"/>
<path d="M437.974 836.314H474.145V691.145H538.772V664.137H373.347V691.145H437.974V836.314Z" fill="url(#paint2_linear_1_39)"/>
<path d="M527.68 836.314H566.745L584.589 793.631H665.614L683.699 836.314H723.971L647.287 664.137H604.363L527.68 836.314ZM595.441 766.623L625.343 694.039L654.762 766.623H595.441Z" fill="url(#paint3_linear_1_39)"/>
<path d="M775.576 741.303V691.145H838.032C857.323 691.145 868.898 697.897 868.898 715.983C868.898 735.275 858.288 741.303 838.032 741.303H775.576ZM739.404 836.314H775.576V768.311H837.067C863.352 768.311 866.969 785.915 866.969 810.27C866.969 822.81 868.657 831.491 871.31 836.314H910.375C903.382 826.668 903.141 807.859 903.141 799.419C903.141 774.822 898.318 757.219 878.062 752.878V752.396C894.459 747.332 906.517 733.345 906.517 710.919C906.517 683.911 892.289 664.137 848.401 664.137H739.404V836.314Z" fill="url(#paint4_linear_1_39)"/>
<path d="M185.839 895.976C185.839 910.434 211.793 902.835 211.793 911.569C211.793 915.368 207.649 916.75 203.109 916.75C196.991 916.75 193.191 914.579 192.994 909.891H185C185.148 917.293 190.181 922.276 202.862 922.276C210.363 922.276 219.787 919.908 219.787 910.828C219.787 895.73 193.536 903.772 193.536 895.433C193.536 892.078 196.793 890.598 201.727 890.598C207.896 890.598 210.363 893.509 210.609 896.272H218.603C217.616 886.058 206.81 885.071 201.382 885.071C192.796 885.071 185.839 888.081 185.839 895.976Z" fill="url(#paint5_linear_1_39)"/>
<path d="M224.278 921.289H255.265V915.763H231.679V905.993H253.933V900.466H231.679V891.585H254.871V886.058H224.278V921.289Z" fill="url(#paint6_linear_1_39)"/>
<path d="M260.841 921.289H267.798L267.502 892.177H267.601L280.529 921.289H286.845L299.872 892.177H299.97L299.674 921.289H306.632V886.058H296.072L283.835 913.394L271.499 886.058H260.841V921.289Z" fill="url(#paint7_linear_1_39)"/>
<path d="M309.79 921.289H317.783L321.435 912.556H338.014L341.715 921.289H349.956L334.264 886.058H325.481L309.79 921.289ZM323.655 907.029L329.774 892.177L335.794 907.029H323.655Z" fill="url(#paint8_linear_1_39)"/>
<path d="M353.114 921.289H360.219V894.841H360.318L381.437 921.289H389.776V886.058H382.67V912.506H382.572L361.601 886.058H353.114V921.289Z" fill="url(#paint9_linear_1_39)"/>
<path d="M392.934 921.289H400.927L404.579 912.556H421.158L424.859 921.289H433.099L417.408 886.058H408.625L392.934 921.289ZM406.799 907.029L412.918 892.177L418.938 907.029H406.799Z" fill="url(#paint10_linear_1_39)"/>
<path d="M453.626 921.289H474.4C486.39 921.289 489.844 911.569 489.844 904.019C489.844 893.953 486.44 886.058 472.623 886.058H453.626V921.289ZM461.028 891.585H471.044C475.189 891.585 482.443 892.276 482.443 903.723C482.443 914.036 476.768 915.763 471.439 915.763H461.028V891.585Z" fill="url(#paint11_linear_1_39)"/>
<path d="M495.667 921.289H526.655V915.763H503.069V905.993H525.323V900.466H503.069V891.585H526.26V886.058H495.667V921.289Z" fill="url(#paint12_linear_1_39)"/>
<path d="M559.221 921.289H566.623V891.585H579.847V886.058H545.997V891.585H559.221V921.289Z" fill="url(#paint13_linear_1_39)"/>
<path d="M583.449 921.289H614.437V915.763H590.851V905.993H613.105V900.466H590.851V891.585H614.042V886.058H583.449V921.289Z" fill="url(#paint14_linear_1_39)"/>
<path d="M656.971 899.085C656.181 891.436 649.865 885.071 637.727 885.071C623.911 885.071 618.039 893.756 618.039 903.674C618.039 913.592 624.059 922.276 636.839 922.276C651.296 922.276 655.935 914.776 656.971 907.818H648.977C648.336 911.569 645.819 916.75 638.122 916.75C630.819 916.75 625.737 911.667 625.737 904.315C625.737 895.137 630.77 890.598 637.628 890.598C643.895 890.598 648.188 893.805 648.977 899.085H656.971Z" fill="url(#paint15_linear_1_39)"/>
<path d="M662.942 921.289H670.047V894.841H670.146L691.265 921.289H699.604V886.058H692.498V912.506H692.4L671.429 886.058H662.942V921.289Z" fill="url(#paint16_linear_1_39)"/>
<path d="M725.558 916.75C717.269 916.75 712.532 911.371 712.532 903.674C712.532 895.976 717.269 890.598 725.558 890.598C733.848 890.598 738.585 895.976 738.585 903.674C738.585 911.371 733.848 916.75 725.558 916.75ZM725.558 922.276C740.46 922.276 746.283 913.592 746.283 903.674C746.283 893.756 740.46 885.071 725.558 885.071C710.657 885.071 704.834 893.756 704.834 903.674C704.834 913.592 710.657 922.276 725.558 922.276Z" fill="url(#paint17_linear_1_39)"/>
<path d="M751.513 921.289H780.33V915.467H758.915V886.058H751.513V921.289Z" fill="url(#paint18_linear_1_39)"/>
<path d="M803.176 916.75C794.886 916.75 790.149 911.371 790.149 903.674C790.149 895.976 794.886 890.598 803.176 890.598C811.466 890.598 816.203 895.976 816.203 903.674C816.203 911.371 811.466 916.75 803.176 916.75ZM803.176 922.276C818.078 922.276 823.9 913.592 823.9 903.674C823.9 893.756 818.078 885.071 803.176 885.071C788.274 885.071 782.451 893.756 782.451 903.674C782.451 913.592 788.274 922.276 803.176 922.276Z" fill="url(#paint19_linear_1_39)"/>
<path d="M866.681 901.947H849.313V907.473H859.28C858.095 913.247 854.641 916.75 847.092 916.75C840.875 916.75 834.855 913.247 834.855 903.921C834.855 896.174 838.358 890.598 847.487 890.598C852.273 890.598 856.714 892.621 858.046 897.407H866.04C865.25 890.499 858.342 885.071 847.684 885.071C833.325 885.071 827.157 893.756 827.157 903.674C827.157 913.592 832.98 922.276 847.881 922.276C853.457 922.276 858.392 920.204 861.303 916.7L862.339 921.289H866.681V901.947Z" fill="url(#paint20_linear_1_39)"/>
<path d="M873.885 921.289H881.287V886.058H873.885V921.289Z" fill="url(#paint21_linear_1_39)"/>
<path d="M884.445 921.289H892.438L896.09 912.556H912.669L916.37 921.289H924.61L908.919 886.058H900.136L884.445 921.289ZM898.31 907.029L904.429 892.177L910.448 907.029H898.31Z" fill="url(#paint22_linear_1_39)"/>
<path d="M338.927 980.403H359.701C371.691 980.403 375.145 970.683 375.145 963.133C375.145 953.067 371.741 945.172 357.924 945.172H338.927V980.403ZM346.329 950.698H356.345C360.49 950.698 367.744 951.389 367.744 962.837C367.744 973.149 362.069 974.877 356.74 974.877H346.329V950.698Z" fill="url(#paint23_linear_1_39)"/>
<path d="M380.968 980.403H411.956V974.877H388.369V965.107H410.623V959.58H388.369V950.698H411.561V945.172H380.968V980.403Z" fill="url(#paint24_linear_1_39)"/>
<path d="M430.854 980.403H438.848L442.499 971.669H459.078L462.779 980.403H471.02L455.328 945.172H446.545L430.854 980.403ZM444.72 966.143L450.838 951.291L456.858 966.143H444.72Z" fill="url(#paint25_linear_1_39)"/>
<path d="M481.579 960.962V950.698H494.36C498.307 950.698 500.675 952.08 500.675 955.781C500.675 959.728 498.504 960.962 494.36 960.962H481.579ZM474.178 980.403H481.579V966.488H494.162C499.54 966.488 500.281 970.09 500.281 975.074C500.281 977.64 500.626 979.416 501.169 980.403H509.162C507.731 978.429 507.682 974.581 507.682 972.853C507.682 967.82 506.695 964.218 502.551 963.33V963.232C505.906 962.195 508.373 959.333 508.373 954.744C508.373 949.218 505.462 945.172 496.481 945.172H474.178V980.403Z" fill="url(#paint26_linear_1_39)"/>
<path d="M510.346 980.403H518.34L521.992 971.669H538.571L542.272 980.403H550.512L534.821 945.172H526.038L510.346 980.403ZM524.212 966.143L530.331 951.291L536.35 966.143H524.212Z" fill="url(#paint27_linear_1_39)"/>
<path d="M591.221 961.06H573.852V966.587H583.819C582.635 972.36 579.181 975.864 571.631 975.864C565.414 975.864 559.394 972.36 559.394 963.034C559.394 955.287 562.897 949.711 572.026 949.711C576.812 949.711 581.253 951.735 582.586 956.521H590.579C589.79 949.613 582.882 944.185 572.223 944.185C557.865 944.185 551.696 952.869 551.696 962.787C551.696 972.705 557.519 981.39 572.421 981.39C577.997 981.39 582.931 979.318 585.842 975.814L586.878 980.403H591.221V961.06Z" fill="url(#paint28_linear_1_39)"/>
<path d="M598.129 965.255C598.129 971.127 598.326 981.39 615.35 981.39C632.423 981.39 632.62 971.077 632.62 965.255V945.172H625.218V965.057C625.218 969.893 625.021 975.863 615.35 975.863C605.678 975.863 605.53 969.942 605.53 965.057V945.172H598.129V965.255Z" fill="url(#paint29_linear_1_39)"/>
<path d="M635.482 980.403H643.475L647.127 971.669H663.706L667.407 980.403H675.647L659.956 945.172H651.173L635.482 980.403ZM649.347 966.143L655.466 951.291L661.486 966.143H649.347Z" fill="url(#paint30_linear_1_39)"/>
<path d="M678.806 980.403H686.207V945.172H678.806V980.403ZM678.855 942.458H684.727L691.635 935.451H683.246L678.855 942.458Z" fill="url(#paint31_linear_1_39)"/>
<path d="M693.411 980.403H700.516V953.955H700.615L721.734 980.403H730.073V945.172H722.968V971.62H722.869L701.898 945.172H693.411V980.403Z" fill="url(#paint32_linear_1_39)"/>
<path d="M733.231 980.403H741.225L744.876 971.669H761.456L765.156 980.403H773.397L757.705 945.172H748.922L733.231 980.403ZM747.097 966.143L753.215 951.291L759.235 966.143H747.097Z" fill="url(#paint33_linear_1_39)"/>
<defs>
<linearGradient id="paint0_linear_1_39" x1="304.938" y1="297.605" x2="826.345" y2="297.602" gradientUnits="userSpaceOnUse">
<stop stop-color="#00ADE4"/>
<stop offset="1" stop-color="#0D8FF1"/>
</linearGradient>
<linearGradient id="paint1_linear_1_39" x1="235.772" y1="740.237" x2="342.921" y2="740.236" gradientUnits="userSpaceOnUse">
<stop stop-color="#00ADE4"/>
<stop offset="1" stop-color="#0D8FF1"/>
</linearGradient>
<linearGradient id="paint2_linear_1_39" x1="409.128" y1="740.767" x2="513.39" y2="740.766" gradientUnits="userSpaceOnUse">
<stop stop-color="#00ADE4"/>
<stop offset="1" stop-color="#0D8FF1"/>
</linearGradient>
<linearGradient id="paint3_linear_1_39" x1="570.137" y1="740.767" x2="693.852" y2="740.766" gradientUnits="userSpaceOnUse">
<stop stop-color="#00ADE4"/>
<stop offset="1" stop-color="#0D8FF1"/>
</linearGradient>
<linearGradient id="paint4_linear_1_39" x1="776.385" y1="740.767" x2="884.142" y2="740.766" gradientUnits="userSpaceOnUse">
<stop stop-color="#00ADE4"/>
<stop offset="1" stop-color="#0D8FF1"/>
</linearGradient>
<linearGradient id="paint5_linear_1_39" x1="192.524" y1="901.63" x2="214.449" y2="901.63" gradientUnits="userSpaceOnUse">
<stop stop-color="#00ADE4"/>
<stop offset="1" stop-color="#0D8FF1"/>
</linearGradient>
<linearGradient id="paint6_linear_1_39" x1="230.98" y1="901.738" x2="250.51" y2="901.738" gradientUnits="userSpaceOnUse">
<stop stop-color="#00ADE4"/>
<stop offset="1" stop-color="#0D8FF1"/>
</linearGradient>
<linearGradient id="paint7_linear_1_39" x1="270.745" y1="901.738" x2="299.606" y2="901.738" gradientUnits="userSpaceOnUse">
<stop stop-color="#00ADE4"/>
<stop offset="1" stop-color="#0D8FF1"/>
</linearGradient>
<linearGradient id="paint8_linear_1_39" x1="318.478" y1="901.738" x2="343.793" y2="901.738" gradientUnits="userSpaceOnUse">
<stop stop-color="#00ADE4"/>
<stop offset="1" stop-color="#0D8FF1"/>
</linearGradient>
<linearGradient id="paint9_linear_1_39" x1="361.044" y1="901.738" x2="384.15" y2="901.738" gradientUnits="userSpaceOnUse">
<stop stop-color="#00ADE4"/>
<stop offset="1" stop-color="#0D8FF1"/>
</linearGradient>
<linearGradient id="paint10_linear_1_39" x1="401.621" y1="901.738" x2="426.936" y2="901.738" gradientUnits="userSpaceOnUse">
<stop stop-color="#00ADE4"/>
<stop offset="1" stop-color="#0D8FF1"/>
</linearGradient>
<linearGradient id="paint11_linear_1_39" x1="461.46" y1="901.738" x2="484.287" y2="901.738" gradientUnits="userSpaceOnUse">
<stop stop-color="#00ADE4"/>
<stop offset="1" stop-color="#0D8FF1"/>
</linearGradient>
<linearGradient id="paint12_linear_1_39" x1="502.37" y1="901.738" x2="521.9" y2="901.738" gradientUnits="userSpaceOnUse">
<stop stop-color="#00ADE4"/>
<stop offset="1" stop-color="#0D8FF1"/>
</linearGradient>
<linearGradient id="paint13_linear_1_39" x1="553.319" y1="901.738" x2="574.653" y2="901.738" gradientUnits="userSpaceOnUse">
<stop stop-color="#00ADE4"/>
<stop offset="1" stop-color="#0D8FF1"/>
</linearGradient>
<linearGradient id="paint14_linear_1_39" x1="590.152" y1="901.738" x2="609.682" y2="901.738" gradientUnits="userSpaceOnUse">
<stop stop-color="#00ADE4"/>
<stop offset="1" stop-color="#0D8FF1"/>
</linearGradient>
<linearGradient id="paint15_linear_1_39" x1="626.46" y1="901.63" x2="650.997" y2="901.63" gradientUnits="userSpaceOnUse">
<stop stop-color="#00ADE4"/>
<stop offset="1" stop-color="#0D8FF1"/>
</linearGradient>
<linearGradient id="paint16_linear_1_39" x1="670.872" y1="901.738" x2="693.979" y2="901.738" gradientUnits="userSpaceOnUse">
<stop stop-color="#00ADE4"/>
<stop offset="1" stop-color="#0D8FF1"/>
</linearGradient>
<linearGradient id="paint17_linear_1_39" x1="713.799" y1="901.63" x2="739.923" y2="901.63" gradientUnits="userSpaceOnUse">
<stop stop-color="#00ADE4"/>
<stop offset="1" stop-color="#0D8FF1"/>
</linearGradient>
<linearGradient id="paint18_linear_1_39" x1="757.746" y1="901.738" x2="775.909" y2="901.738" gradientUnits="userSpaceOnUse">
<stop stop-color="#00ADE4"/>
<stop offset="1" stop-color="#0D8FF1"/>
</linearGradient>
<linearGradient id="paint19_linear_1_39" x1="791.417" y1="901.63" x2="817.54" y2="901.63" gradientUnits="userSpaceOnUse">
<stop stop-color="#00ADE4"/>
<stop offset="1" stop-color="#0D8FF1"/>
</linearGradient>
<linearGradient id="paint20_linear_1_39" x1="835.706" y1="901.63" x2="860.617" y2="901.63" gradientUnits="userSpaceOnUse">
<stop stop-color="#00ADE4"/>
<stop offset="1" stop-color="#0D8FF1"/>
</linearGradient>
<linearGradient id="paint21_linear_1_39" x1="875.486" y1="901.738" x2="880.151" y2="901.738" gradientUnits="userSpaceOnUse">
<stop stop-color="#00ADE4"/>
<stop offset="1" stop-color="#0D8FF1"/>
</linearGradient>
<linearGradient id="paint22_linear_1_39" x1="893.132" y1="901.738" x2="918.447" y2="901.738" gradientUnits="userSpaceOnUse">
<stop stop-color="#00ADE4"/>
<stop offset="1" stop-color="#0D8FF1"/>
</linearGradient>
<linearGradient id="paint23_linear_1_39" x1="346.761" y1="960.852" x2="369.588" y2="960.852" gradientUnits="userSpaceOnUse">
<stop stop-color="#00ADE4"/>
<stop offset="1" stop-color="#0D8FF1"/>
</linearGradient>
<linearGradient id="paint24_linear_1_39" x1="387.671" y1="960.852" x2="407.201" y2="960.852" gradientUnits="userSpaceOnUse">
<stop stop-color="#00ADE4"/>
<stop offset="1" stop-color="#0D8FF1"/>
</linearGradient>
<linearGradient id="paint25_linear_1_39" x1="439.542" y1="960.852" x2="464.857" y2="960.852" gradientUnits="userSpaceOnUse">
<stop stop-color="#00ADE4"/>
<stop offset="1" stop-color="#0D8FF1"/>
</linearGradient>
<linearGradient id="paint26_linear_1_39" x1="481.745" y1="960.852" x2="503.794" y2="960.852" gradientUnits="userSpaceOnUse">
<stop stop-color="#00ADE4"/>
<stop offset="1" stop-color="#0D8FF1"/>
</linearGradient>
<linearGradient id="paint27_linear_1_39" x1="519.034" y1="960.852" x2="544.349" y2="960.852" gradientUnits="userSpaceOnUse">
<stop stop-color="#00ADE4"/>
<stop offset="1" stop-color="#0D8FF1"/>
</linearGradient>
<linearGradient id="paint28_linear_1_39" x1="560.245" y1="960.744" x2="585.156" y2="960.743" gradientUnits="userSpaceOnUse">
<stop stop-color="#00ADE4"/>
<stop offset="1" stop-color="#0D8FF1"/>
</linearGradient>
<linearGradient id="paint29_linear_1_39" x1="605.589" y1="961.291" x2="627.328" y2="961.291" gradientUnits="userSpaceOnUse">
<stop stop-color="#00ADE4"/>
<stop offset="1" stop-color="#0D8FF1"/>
</linearGradient>
<linearGradient id="paint30_linear_1_39" x1="644.169" y1="960.852" x2="669.485" y2="960.852" gradientUnits="userSpaceOnUse">
<stop stop-color="#00ADE4"/>
<stop offset="1" stop-color="#0D8FF1"/>
</linearGradient>
<linearGradient id="paint31_linear_1_39" x1="681.58" y1="955.457" x2="689.666" y2="955.457" gradientUnits="userSpaceOnUse">
<stop stop-color="#00ADE4"/>
<stop offset="1" stop-color="#0D8FF1"/>
</linearGradient>
<linearGradient id="paint32_linear_1_39" x1="701.341" y1="960.852" x2="724.448" y2="960.852" gradientUnits="userSpaceOnUse">
<stop stop-color="#00ADE4"/>
<stop offset="1" stop-color="#0D8FF1"/>
</linearGradient>
<linearGradient id="paint33_linear_1_39" x1="741.919" y1="960.852" x2="767.234" y2="960.852" gradientUnits="userSpaceOnUse">
<stop stop-color="#00ADE4"/>
<stop offset="1" stop-color="#0D8FF1"/>
</linearGradient>
</defs>
</svg>
